<svg width="274" height="31" viewBox="0 0 274 31" fill="none" xmlns="http://www.w3.org/2000/svg">
<path d="M12.636 12.92C13.7747 13.1627 14.6893 13.732 15.38 14.628C16.0707 15.5053 16.416 16.5133 16.416 17.652C16.416 19.2947 15.8373 20.6013 14.68 21.572C13.5413 22.524 11.9453 23 9.892 23H0.736V3.344H9.584C11.5813 3.344 13.14 3.80133 14.26 4.716C15.3987 5.63067 15.968 6.872 15.968 8.44C15.968 9.59733 15.66 10.5587 15.044 11.324C14.4467 12.0893 13.644 12.6213 12.636 12.92ZM5.524 11.296H8.66C9.444 11.296 10.0413 11.128 10.452 10.792C10.8813 10.4373 11.096 9.924 11.096 9.252C11.096 8.58 10.8813 8.06667 10.452 7.712C10.0413 7.35733 9.444 7.18 8.66 7.18H5.524V11.296ZM9.052 19.136C9.85467 19.136 10.4707 18.9587 10.9 18.604C11.348 18.2307 11.572 17.6987 11.572 17.008C11.572 16.3173 11.3387 15.776 10.872 15.384C10.424 14.992 9.79867 14.796 8.996 14.796H5.524V19.136H9.052ZM18.241 15.16C18.241 13.5547 18.5397 12.1453 19.137 10.932C19.753 9.71867 20.5837 8.78533 21.629 8.132C22.6744 7.47867 23.841 7.152 25.129 7.152C26.2304 7.152 27.1917 7.376 28.013 7.824C28.853 8.272 29.497 8.86 29.945 9.588V7.376H34.733V23H29.945V20.788C29.4784 21.516 28.825 22.104 27.985 22.552C27.1637 23 26.2024 23.224 25.101 23.224C23.8317 23.224 22.6744 22.8973 21.629 22.244C20.5837 21.572 19.753 20.6293 19.137 19.416C18.5397 18.184 18.241 16.7653 18.241 15.16ZM29.945 15.188C29.945 13.9933 29.609 13.0507 28.937 12.36C28.2837 11.6693 27.481 11.324 26.529 11.324C25.577 11.324 24.765 11.6693 24.093 12.36C23.4397 13.032 23.113 13.9653 23.113 15.16C23.113 16.3547 23.4397 17.3067 24.093 18.016C24.765 18.7067 25.577 19.052 26.529 19.052C27.481 19.052 28.2837 18.7067 28.937 18.016C29.609 17.3253 29.945 16.3827 29.945 15.188ZM47.8009 7.208C49.5929 7.208 51.0303 7.80533 52.1129 9C53.1956 10.176 53.7369 11.8 53.7369 13.872V23H48.9769V14.516C48.9769 13.4707 48.7063 12.6587 48.1649 12.08C47.6236 11.5013 46.8956 11.212 45.9809 11.212C45.0663 11.212 44.3383 11.5013 43.7969 12.08C43.2556 12.6587 42.9849 13.4707 42.9849 14.516V23H38.1969V2.28H42.9849V9.476C43.4703 8.78533 44.1329 8.23467 44.9729 7.824C45.8129 7.41333 46.7556 7.208 47.8009 7.208ZM56.1121 15.16C56.1121 13.5547 56.4108 12.1453 57.0081 10.932C57.6241 9.71867 58.4548 8.78533 59.5001 8.132C60.5455 7.47867 61.7121 7.152 63.0001 7.152C64.1015 7.152 65.0628 7.376 65.8841 7.824C66.7241 8.272 67.3681 8.86 67.8161 9.588V7.376H72.6041V23H67.8161V20.788C67.3495 21.516 66.6961 22.104 65.8561 22.552C65.0348 23 64.0735 23.224 62.9721 23.224C61.7028 23.224 60.5455 22.8973 59.5001 22.244C58.4548 21.572 57.6241 20.6293 57.0081 19.416C56.4108 18.184 56.1121 16.7653 56.1121 15.16ZM67.8161 15.188C67.8161 13.9933 67.4801 13.0507 66.8081 12.36C66.1548 11.6693 65.3521 11.324 64.4001 11.324C63.4481 11.324 62.6361 11.6693 61.9641 12.36C61.3108 13.032 60.9841 13.9653 60.9841 15.16C60.9841 16.3547 61.3108 17.3067 61.9641 18.016C62.6361 18.7067 63.4481 19.052 64.4001 19.052C65.3521 19.052 66.1548 18.7067 66.8081 18.016C67.4801 17.3253 67.8161 16.3827 67.8161 15.188ZM80.856 9.98C81.416 9.12133 82.116 8.44933 82.956 7.964C83.796 7.46 84.7294 7.208 85.756 7.208V12.276H84.44C83.2454 12.276 82.3494 12.5373 81.752 13.06C81.1547 13.564 80.856 14.46 80.856 15.748V23H76.068V7.376H80.856V9.98ZM90.4526 5.752C89.6126 5.752 88.9219 5.50933 88.3806 5.024C87.8579 4.52 87.5966 3.904 87.5966 3.176C87.5966 2.42933 87.8579 1.81333 88.3806 1.328C88.9219 0.823998 89.6126 0.571998 90.4526 0.571998C91.2739 0.571998 91.9459 0.823998 92.4686 1.328C93.0099 1.81333 93.2806 2.42933 93.2806 3.176C93.2806 3.904 93.0099 4.52 92.4686 5.024C91.9459 5.50933 91.2739 5.752 90.4526 5.752ZM92.8326 7.376V23H88.0446V7.376H92.8326ZM129.284 3.344L124.16 23H118.364L115.228 10.064L111.98 23H106.184L101.2 3.344H106.324L109.152 17.652L112.652 3.344H117.916L121.276 17.652L124.132 3.344H129.284ZM138.797 23.224C137.267 23.224 135.885 22.8973 134.653 22.244C133.44 21.5907 132.479 20.6573 131.769 19.444C131.079 18.2307 130.733 16.812 130.733 15.188C130.733 13.5827 131.088 12.1733 131.797 10.96C132.507 9.728 133.477 8.78533 134.709 8.132C135.941 7.47867 137.323 7.152 138.853 7.152C140.384 7.152 141.765 7.47867 142.997 8.132C144.229 8.78533 145.2 9.728 145.909 10.96C146.619 12.1733 146.973 13.5827 146.973 15.188C146.973 16.7933 146.609 18.212 145.881 19.444C145.172 20.6573 144.192 21.5907 142.941 22.244C141.709 22.8973 140.328 23.224 138.797 23.224ZM138.797 19.08C139.712 19.08 140.487 18.744 141.121 18.072C141.775 17.4 142.101 16.4387 142.101 15.188C142.101 13.9373 141.784 12.976 141.149 12.304C140.533 11.632 139.768 11.296 138.853 11.296C137.92 11.296 137.145 11.632 136.529 12.304C135.913 12.9573 135.605 13.9187 135.605 15.188C135.605 16.4387 135.904 17.4 136.501 18.072C137.117 18.744 137.883 19.08 138.797 19.08ZM159.033 7.208C160.863 7.208 162.319 7.80533 163.401 9C164.503 10.176 165.053 11.8 165.053 13.872V23H160.293V14.516C160.293 13.4707 160.023 12.6587 159.481 12.08C158.94 11.5013 158.212 11.212 157.297 11.212C156.383 11.212 155.655 11.5013 155.113 12.08C154.572 12.6587 154.301 13.4707 154.301 14.516V23H149.513V7.376H154.301V9.448C154.787 8.75733 155.44 8.216 156.261 7.824C157.083 7.41333 158.007 7.208 159.033 7.208ZM174.317 7.152C175.418 7.152 176.379 7.376 177.201 7.824C178.041 8.272 178.685 8.86 179.133 9.588V7.376H183.921V22.972C183.921 24.4093 183.631 25.7067 183.053 26.864C182.493 28.04 181.625 28.9733 180.449 29.664C179.291 30.3547 177.845 30.7 176.109 30.7C173.794 30.7 171.918 30.1493 170.481 29.048C169.043 27.9653 168.222 26.4907 168.017 24.624H172.749C172.898 25.2213 173.253 25.688 173.813 26.024C174.373 26.3787 175.063 26.556 175.885 26.556C176.874 26.556 177.658 26.2667 178.237 25.688C178.834 25.128 179.133 24.2227 179.133 22.972V20.76C178.666 21.488 178.022 22.0853 177.201 22.552C176.379 23 175.418 23.224 174.317 23.224C173.029 23.224 171.862 22.8973 170.817 22.244C169.771 21.572 168.941 20.6293 168.325 19.416C167.727 18.184 167.429 16.7653 167.429 15.16C167.429 13.5547 167.727 12.1453 168.325 10.932C168.941 9.71867 169.771 8.78533 170.817 8.132C171.862 7.47867 173.029 7.152 174.317 7.152ZM179.133 15.188C179.133 13.9933 178.797 13.0507 178.125 12.36C177.471 11.6693 176.669 11.324 175.717 11.324C174.765 11.324 173.953 11.6693 173.281 12.36C172.627 13.032 172.301 13.9653 172.301 15.16C172.301 16.3547 172.627 17.3067 173.281 18.016C173.953 18.7067 174.765 19.052 175.717 19.052C176.669 19.052 177.471 18.7067 178.125 18.016C178.797 17.3253 179.133 16.3827 179.133 15.188ZM193.74 23.224C192.378 23.224 191.164 22.9907 190.1 22.524C189.036 22.0573 188.196 21.4227 187.58 20.62C186.964 19.7987 186.619 18.884 186.544 17.876H191.276C191.332 18.4173 191.584 18.856 192.032 19.192C192.48 19.528 193.031 19.696 193.684 19.696C194.282 19.696 194.739 19.584 195.056 19.36C195.392 19.1173 195.56 18.8093 195.56 18.436C195.56 17.988 195.327 17.6613 194.86 17.456C194.394 17.232 193.638 16.9893 192.592 16.728C191.472 16.4667 190.539 16.196 189.792 15.916C189.046 15.6173 188.402 15.16 187.86 14.544C187.319 13.9093 187.048 13.06 187.048 11.996C187.048 11.1 187.291 10.288 187.776 9.56C188.28 8.81333 189.008 8.22533 189.96 7.796C190.931 7.36667 192.079 7.152 193.404 7.152C195.364 7.152 196.904 7.63733 198.024 8.608C199.163 9.57867 199.816 10.8667 199.984 12.472H195.56C195.486 11.9307 195.243 11.5013 194.832 11.184C194.44 10.8667 193.918 10.708 193.264 10.708C192.704 10.708 192.275 10.82 191.976 11.044C191.678 11.2493 191.528 11.5387 191.528 11.912C191.528 12.36 191.762 12.696 192.228 12.92C192.714 13.144 193.46 13.368 194.468 13.592C195.626 13.8907 196.568 14.1893 197.296 14.488C198.024 14.768 198.659 15.2347 199.2 15.888C199.76 16.5227 200.05 17.3813 200.068 18.464C200.068 19.3787 199.807 20.2 199.284 20.928C198.78 21.6373 198.043 22.1973 197.072 22.608C196.12 23.0187 195.01 23.224 193.74 23.224ZM210.11 23.224C208.579 23.224 207.198 22.8973 205.966 22.244C204.752 21.5907 203.791 20.6573 203.082 19.444C202.391 18.2307 202.046 16.812 202.046 15.188C202.046 13.5827 202.4 12.1733 203.11 10.96C203.819 9.728 204.79 8.78533 206.022 8.132C207.254 7.47867 208.635 7.152 210.166 7.152C211.696 7.152 213.078 7.47867 214.31 8.132C215.542 8.78533 216.512 9.728 217.222 10.96C217.931 12.1733 218.286 13.5827 218.286 15.188C218.286 16.7933 217.922 18.212 217.194 19.444C216.484 20.6573 215.504 21.5907 214.254 22.244C213.022 22.8973 211.64 23.224 210.11 23.224ZM210.11 19.08C211.024 19.08 211.799 18.744 212.434 18.072C213.087 17.4 213.414 16.4387 213.414 15.188C213.414 13.9373 213.096 12.976 212.462 12.304C211.846 11.632 211.08 11.296 210.166 11.296C209.232 11.296 208.458 11.632 207.842 12.304C207.226 12.9573 206.918 13.9187 206.918 15.188C206.918 16.4387 207.216 17.4 207.814 18.072C208.43 18.744 209.195 19.08 210.11 19.08ZM225.614 9.98C226.174 9.12133 226.874 8.44933 227.714 7.964C228.554 7.46 229.487 7.208 230.514 7.208V12.276H229.198C228.003 12.276 227.107 12.5373 226.51 13.06C225.913 13.564 225.614 14.46 225.614 15.748V23H220.826V7.376H225.614V9.98ZM247.53 14.936C247.53 15.384 247.502 15.8507 247.446 16.336H236.61C236.685 17.3067 236.993 18.0533 237.534 18.576C238.094 19.08 238.776 19.332 239.578 19.332C240.773 19.332 241.604 18.828 242.07 17.82H247.166C246.905 18.8467 246.429 19.7707 245.738 20.592C245.066 21.4133 244.217 22.0573 243.19 22.524C242.164 22.9907 241.016 23.224 239.746 23.224C238.216 23.224 236.853 22.8973 235.658 22.244C234.464 21.5907 233.53 20.6573 232.858 19.444C232.186 18.2307 231.85 16.812 231.85 15.188C231.85 13.564 232.177 12.1453 232.83 10.932C233.502 9.71867 234.436 8.78533 235.63 8.132C236.825 7.47867 238.197 7.152 239.746 7.152C241.258 7.152 242.602 7.46933 243.778 8.104C244.954 8.73867 245.869 9.644 246.522 10.82C247.194 11.996 247.53 13.368 247.53 14.936ZM242.63 13.676C242.63 12.8547 242.35 12.2013 241.79 11.716C241.23 11.2307 240.53 10.988 239.69 10.988C238.888 10.988 238.206 11.2213 237.646 11.688C237.105 12.1547 236.769 12.8173 236.638 13.676H242.63ZM252.436 5.752C251.596 5.752 250.906 5.50933 250.364 5.024C249.842 4.52 249.58 3.904 249.58 3.176C249.58 2.42933 249.842 1.81333 250.364 1.328C250.906 0.823998 251.596 0.571998 252.436 0.571998C253.258 0.571998 253.93 0.823998 254.452 1.328C254.994 1.81333 255.264 2.42933 255.264 3.176C255.264 3.904 254.994 4.52 254.452 5.024C253.93 5.50933 253.258 5.752 252.436 5.752ZM254.844 25.016C254.844 26.9387 254.359 28.32 253.388 29.16C252.418 30.0187 251.064 30.448 249.328 30.448H247.452V26.388H248.6C249.123 26.388 249.496 26.2853 249.72 26.08C249.944 25.8747 250.056 25.5387 250.056 25.072V7.376H254.844V25.016ZM265.399 23.224C263.868 23.224 262.487 22.8973 261.255 22.244C260.041 21.5907 259.08 20.6573 258.371 19.444C257.68 18.2307 257.335 16.812 257.335 15.188C257.335 13.5827 257.689 12.1733 258.399 10.96C259.108 9.728 260.079 8.78533 261.311 8.132C262.543 7.47867 263.924 7.152 265.455 7.152C266.985 7.152 268.367 7.47867 269.599 8.132C270.831 8.78533 271.801 9.728 272.511 10.96C273.22 12.1733 273.575 13.5827 273.575 15.188C273.575 16.7933 273.211 18.212 272.483 19.444C271.773 20.6573 270.793 21.5907 269.543 22.244C268.311 22.8973 266.929 23.224 265.399 23.224ZM265.399 19.08C266.313 19.08 267.088 18.744 267.723 18.072C268.376 17.4 268.703 16.4387 268.703 15.188C268.703 13.9373 268.385 12.976 267.751 12.304C267.135 11.632 266.369 11.296 265.455 11.296C264.521 11.296 263.747 11.632 263.131 12.304C262.515 12.9573 262.207 13.9187 262.207 15.188C262.207 16.4387 262.505 17.4 263.103 18.072C263.719 18.744 264.484 19.08 265.399 19.08Z" fill="#776A4D"/>
</svg>
